<svg xmlns="http://www.w3.org/2000/svg" xmlns:xlink="http://www.w3.org/1999/xlink" width="2000" zoomAndPan="magnify" viewBox="0 0 1500 1499.999933" height="2000" preserveAspectRatio="xMidYMid meet" version="1.0"><defs><filter x="0%" y="0%" width="100%" height="100%" id="f3c9923a54"><feColorMatrix values="0 0 0 0 1 0 0 0 0 1 0 0 0 0 1 0 0 0 1 0" color-interpolation-filters="sRGB"/></filter><g/><clipPath id="af4127da34"><path d="M 0 259 L 823 259 L 823 1238 L 0 1238 Z M 0 259 " clip-rule="nonzero"/></clipPath><clipPath id="0ef366fe4e"><rect x="0" width="856" y="0" height="1500"/></clipPath><clipPath id="f682c78f7f"><path d="M 0 0 L 1500 0 L 1500 1500 L 0 1500 Z M 0 0 " clip-rule="nonzero"/></clipPath><linearGradient x1="-315.638848" gradientTransform="matrix(1.645853, 0, 0, 1.645246, 444.619219, 724.83395)" y1="-395.068832" x2="595.91061" gradientUnits="userSpaceOnUse" y2="516.480588" id="22b84ac753"><stop stop-opacity="1" stop-color="rgb(85.099792%, 79.60968%, 1.568604%)" offset="0"/><stop stop-opacity="1" stop-color="rgb(85.099792%, 79.60968%, 1.568604%)" offset="0.25"/><stop stop-opacity="1" stop-color="rgb(85.099792%, 79.60968%, 1.568604%)" offset="0.375"/><stop stop-opacity="1" stop-color="rgb(85.099792%, 79.60968%, 1.568604%)" offset="0.40625"/><stop stop-opacity="1" stop-color="rgb(85.025024%, 79.75769%, 1.568604%)" offset="0.421875"/><stop stop-opacity="1" stop-color="rgb(84.811401%, 80.183411%, 1.568604%)" offset="0.425781"/><stop stop-opacity="1" stop-color="rgb(84.672546%, 80.461121%, 1.568604%)" offset="0.429687"/><stop stop-opacity="1" stop-color="rgb(84.533691%, 80.737305%, 1.568604%)" offset="0.433594"/><stop stop-opacity="1" stop-color="rgb(84.394836%, 81.013489%, 1.568604%)" offset="0.4375"/><stop stop-opacity="1" stop-color="rgb(84.255981%, 81.289673%, 1.568604%)" offset="0.441406"/><stop stop-opacity="1" stop-color="rgb(84.118652%, 81.567383%, 1.568604%)" offset="0.445312"/><stop stop-opacity="1" stop-color="rgb(83.979797%, 81.843567%, 1.568604%)" offset="0.449219"/><stop stop-opacity="1" stop-color="rgb(83.840942%, 82.121277%, 1.568604%)" offset="0.453125"/><stop stop-opacity="1" stop-color="rgb(83.702087%, 82.397461%, 1.568604%)" offset="0.457031"/><stop stop-opacity="1" stop-color="rgb(83.563232%, 82.675171%, 1.568604%)" offset="0.460938"/><stop stop-opacity="1" stop-color="rgb(83.424377%, 82.951355%, 1.568604%)" offset="0.464844"/><stop stop-opacity="1" stop-color="rgb(83.285522%, 83.229065%, 1.568604%)" offset="0.46875"/><stop stop-opacity="1" stop-color="rgb(83.146667%, 83.505249%, 1.568604%)" offset="0.472656"/><stop stop-opacity="1" stop-color="rgb(83.007812%, 83.782959%, 1.568604%)" offset="0.476562"/><stop stop-opacity="1" stop-color="rgb(82.868958%, 84.059143%, 1.568604%)" offset="0.480469"/><stop stop-opacity="1" stop-color="rgb(82.731628%, 84.336853%, 1.568604%)" offset="0.484375"/><stop stop-opacity="1" stop-color="rgb(82.592773%, 84.613037%, 1.568604%)" offset="0.488281"/><stop stop-opacity="1" stop-color="rgb(82.453918%, 84.890747%, 1.568604%)" offset="0.492188"/><stop stop-opacity="1" stop-color="rgb(79.833984%, 83.340454%, 2.938843%)" offset="0.496094"/><stop stop-opacity="1" stop-color="rgb(77.21405%, 81.791687%, 4.309082%)" offset="0.5"/><stop stop-opacity="1" stop-color="rgb(73.098755%, 79.139709%, 6.504822%)" offset="0.503906"/><stop stop-opacity="1" stop-color="rgb(68.984985%, 76.489258%, 8.700562%)" offset="0.507812"/><stop stop-opacity="1" stop-color="rgb(64.871216%, 73.838806%, 10.896301%)" offset="0.511719"/><stop stop-opacity="1" stop-color="rgb(60.757446%, 71.188354%, 13.092041%)" offset="0.515625"/><stop stop-opacity="1" stop-color="rgb(56.642151%, 68.537903%, 15.287781%)" offset="0.519531"/><stop stop-opacity="1" stop-color="rgb(52.528381%, 65.887451%, 17.483521%)" offset="0.523437"/><stop stop-opacity="1" stop-color="rgb(48.413086%, 63.237%, 19.67926%)" offset="0.527344"/><stop stop-opacity="1" stop-color="rgb(44.299316%, 60.586548%, 21.875%)" offset="0.53125"/><stop stop-opacity="1" stop-color="rgb(40.184021%, 57.936096%, 24.07074%)" offset="0.535156"/><stop stop-opacity="1" stop-color="rgb(36.070251%, 55.285645%, 26.266479%)" offset="0.539062"/><stop stop-opacity="1" stop-color="rgb(31.954956%, 52.633667%, 28.460693%)" offset="0.542969"/><stop stop-opacity="1" stop-color="rgb(27.841187%, 49.983215%, 30.656433%)" offset="0.546875"/><stop stop-opacity="1" stop-color="rgb(23.727417%, 47.332764%, 32.852173%)" offset="0.550781"/><stop stop-opacity="1" stop-color="rgb(19.613647%, 44.682312%, 35.047913%)" offset="0.554688"/><stop stop-opacity="1" stop-color="rgb(15.498352%, 42.03186%, 37.243652%)" offset="0.558594"/><stop stop-opacity="1" stop-color="rgb(11.384583%, 39.381409%, 39.439392%)" offset="0.5625"/><stop stop-opacity="1" stop-color="rgb(7.269287%, 36.730957%, 41.635132%)" offset="0.566406"/><stop stop-opacity="1" stop-color="rgb(3.155518%, 34.080505%, 43.830872%)" offset="0.570312"/><stop stop-opacity="1" stop-color="rgb(1.980591%, 33.384705%, 44.816589%)" offset="0.574219"/><stop stop-opacity="1" stop-color="rgb(0.80719%, 32.69043%, 45.802307%)" offset="0.578125"/><stop stop-opacity="1" stop-color="rgb(0.827026%, 32.788086%, 46.296692%)" offset="0.582031"/><stop stop-opacity="1" stop-color="rgb(0.848389%, 32.887268%, 46.791077%)" offset="0.585938"/><stop stop-opacity="1" stop-color="rgb(0.868225%, 32.98645%, 47.285461%)" offset="0.589844"/><stop stop-opacity="1" stop-color="rgb(0.888062%, 33.085632%, 47.779846%)" offset="0.59375"/><stop stop-opacity="1" stop-color="rgb(0.907898%, 33.183289%, 48.274231%)" offset="0.597656"/><stop stop-opacity="1" stop-color="rgb(0.92926%, 33.282471%, 48.768616%)" offset="0.601562"/><stop stop-opacity="1" stop-color="rgb(0.949097%, 33.381653%, 49.263%)" offset="0.605469"/><stop stop-opacity="1" stop-color="rgb(0.968933%, 33.480835%, 49.757385%)" offset="0.609375"/><stop stop-opacity="1" stop-color="rgb(0.98877%, 33.580017%, 50.25177%)" offset="0.613281"/><stop stop-opacity="1" stop-color="rgb(1.010132%, 33.679199%, 50.746155%)" offset="0.617187"/><stop stop-opacity="1" stop-color="rgb(1.029968%, 33.776855%, 51.239014%)" offset="0.621094"/><stop stop-opacity="1" stop-color="rgb(1.049805%, 33.876038%, 51.733398%)" offset="0.625"/><stop stop-opacity="1" stop-color="rgb(1.069641%, 33.97522%, 52.227783%)" offset="0.628906"/><stop stop-opacity="1" stop-color="rgb(1.091003%, 34.074402%, 52.722168%)" offset="0.632812"/><stop stop-opacity="1" stop-color="rgb(1.11084%, 34.172058%, 53.216553%)" offset="0.636719"/><stop stop-opacity="1" stop-color="rgb(1.130676%, 34.27124%, 53.710938%)" offset="0.640625"/><stop stop-opacity="1" stop-color="rgb(1.150513%, 34.370422%, 54.205322%)" offset="0.644531"/><stop stop-opacity="1" stop-color="rgb(1.170349%, 34.469604%, 54.699707%)" offset="0.648438"/><stop stop-opacity="1" stop-color="rgb(1.174927%, 34.489441%, 54.798889%)" offset="0.65625"/><stop stop-opacity="1" stop-color="rgb(1.179504%, 34.509277%, 54.899597%)" offset="0.6875"/><stop stop-opacity="1" stop-color="rgb(1.179504%, 34.509277%, 54.899597%)" offset="0.75"/><stop stop-opacity="1" stop-color="rgb(1.179504%, 34.509277%, 54.899597%)" offset="1"/></linearGradient><clipPath id="703ada9a59"><rect x="0" width="1500" y="0" height="1500"/></clipPath><clipPath id="4fd47fbab5"><rect x="0" width="1500" y="0" height="1500"/></clipPath><clipPath id="7884e65636"><rect x="0" width="1500" y="0" height="1500"/></clipPath><mask id="68c13d8e66"><g filter="url(#f3c9923a54)"><g transform="matrix(1, 0, 0, 1, 0, 0.000000000000112861)"><g clip-path="url(#7884e65636)"><g transform="matrix(1, 0, 0, 1, 0, 0.000000000000112861)"><g clip-path="url(#4fd47fbab5)"><g fill="#000000" fill-opacity="1"><g transform="translate(459.018162, 1293.302538)"><g><path d="M 227.640625 -243 C 228.734375 -245.914062 229.921875 -248.285156 231.203125 -250.109375 C 232.484375 -251.941406 233.578125 -253.132812 234.484375 -253.6875 C 235.398438 -254.238281 236.679688 -254.96875 238.328125 -255.875 C 239.972656 -256.789062 240.976562 -257.429688 241.34375 -257.796875 C 245 -259.992188 248.289062 -263.285156 251.21875 -267.671875 C 253.78125 -271.328125 255.0625 -275.898438 255.0625 -281.390625 C 255.0625 -293.816406 251.039062 -303.503906 243 -310.453125 C 234.582031 -317.773438 222.144531 -321.4375 205.6875 -321.4375 C 186.3125 -321.4375 169.128906 -315.945312 154.140625 -304.96875 C 139.140625 -294 127.253906 -277.546875 118.484375 -255.609375 C 109.335938 -232.929688 104.765625 -205.6875 104.765625 -173.875 C 104.765625 -146.445312 109.519531 -121.582031 119.03125 -99.28125 C 128.539062 -77.707031 141.882812 -60.703125 159.0625 -48.265625 C 175.519531 -35.835938 194.535156 -29.625 216.109375 -29.625 C 230.003906 -29.625 242.070312 -31.816406 252.3125 -36.203125 C 254.875 -37.296875 257.4375 -38.578125 260 -40.046875 C 272.0625 -46.992188 282.847656 -58.144531 292.359375 -73.5 C 293.453125 -75.332031 294.726562 -76.976562 296.1875 -78.4375 C 297.65625 -79.894531 299.300781 -81.265625 301.125 -82.546875 C 302.957031 -83.828125 304.878906 -84.832031 306.890625 -85.5625 C 308.898438 -86.300781 310.820312 -86.671875 312.65625 -86.671875 C 318.132812 -86.671875 323.800781 -84.84375 329.65625 -81.1875 L 330.203125 -81.1875 C 340.078125 -74.238281 345.015625 -66.375 345.015625 -57.59375 C 345.015625 -56.132812 344.832031 -54.765625 344.46875 -53.484375 C 344.101562 -52.203125 343.644531 -50.921875 343.09375 -49.640625 C 342.550781 -48.359375 342.003906 -47.171875 341.453125 -46.078125 C 340.898438 -44.984375 340.257812 -43.882812 339.53125 -42.78125 C 332.21875 -34.007812 325.175781 -26.148438 318.40625 -19.203125 C 311.644531 -12.253906 304.789062 -6.21875 297.84375 -1.09375 C 290.164062 4.382812 282.117188 8.953125 273.703125 12.609375 C 267.128906 15.535156 260.367188 17.734375 253.421875 19.203125 C 238.054688 22.859375 219.039062 24.6875 196.375 24.6875 C 162.726562 24.6875 132.007812 16.640625 104.21875 0.546875 C 76.425781 -15.546875 54.300781 -38.398438 37.84375 -68.015625 C 21.394531 -97.640625 13.171875 -131.832031 13.171875 -170.59375 C 13.171875 -189.96875 15.085938 -208.335938 18.921875 -225.703125 C 22.765625 -243.078125 28.707031 -259.445312 36.75 -274.8125 C 52.476562 -305.15625 75.148438 -328.738281 104.765625 -345.5625 C 133.648438 -362.382812 167.472656 -370.796875 206.234375 -370.796875 C 239.878906 -370.796875 269.867188 -364.03125 296.203125 -350.5 C 302.046875 -347.570312 307.253906 -344.1875 311.828125 -340.34375 C 316.398438 -336.507812 320.515625 -332.398438 324.171875 -328.015625 C 327.828125 -323.628906 330.84375 -318.875 333.21875 -313.75 C 335.59375 -308.632812 337.421875 -303.238281 338.703125 -297.5625 C 339.984375 -291.894531 340.625 -285.957031 340.625 -279.75 C 340.988281 -260 334.957031 -242.992188 322.53125 -228.734375 C 315.945312 -221.421875 308.265625 -215.9375 299.484375 -212.28125 C 290.710938 -208.625 281.207031 -206.796875 270.96875 -206.796875 C 262.1875 -206.796875 254.503906 -208.441406 247.921875 -211.734375 C 246.460938 -212.828125 245 -213.828125 243.53125 -214.734375 C 242.070312 -215.648438 240.703125 -216.566406 239.421875 -217.484375 C 238.140625 -218.398438 236.953125 -219.5 235.859375 -220.78125 C 234.765625 -222.0625 233.671875 -223.429688 232.578125 -224.890625 C 228.910156 -230.742188 227.265625 -236.78125 227.640625 -243 Z M 227.640625 -243 "/></g></g></g><g fill="#000000" fill-opacity="1"><g transform="translate(809.519477, 1293.302538)"><g><path d="M 101.46875 -2.1875 C 72.945312 -20.113281 50.828125 -43.882812 35.109375 -73.5 C 19.742188 -103.125 12.0625 -134.753906 12.0625 -168.390625 C 12.0625 -209.347656 21.390625 -245.1875 40.046875 -275.90625 C 58.691406 -306.625 82.550781 -330.117188 111.625 -346.390625 C 140.695312 -362.660156 170.40625 -370.796875 200.75 -370.796875 C 238.414062 -370.796875 271.878906 -361.835938 301.140625 -343.921875 C 306.617188 -340.265625 312.007812 -336.421875 317.3125 -332.390625 C 322.613281 -328.367188 327.640625 -324.070312 332.390625 -319.5 C 337.148438 -314.9375 341.628906 -310.1875 345.828125 -305.25 C 350.035156 -300.3125 353.96875 -295.097656 357.625 -289.609375 C 361.289062 -284.128906 364.765625 -278.460938 368.046875 -272.609375 C 383.410156 -243.359375 391.09375 -211.910156 391.09375 -178.265625 C 391.09375 -157.785156 388.710938 -138.585938 383.953125 -120.671875 C 379.203125 -102.753906 372.070312 -85.929688 362.5625 -70.203125 C 353.425781 -55.210938 342.734375 -41.773438 330.484375 -29.890625 C 318.234375 -18.003906 304.796875 -8.039062 290.171875 0 C 260.546875 16.457031 230.738281 24.6875 200.75 24.6875 C 163.457031 24.6875 130.363281 15.726562 101.46875 -2.1875 Z M 253.421875 -45.53125 C 268.046875 -58.6875 279.195312 -76.601562 286.875 -99.28125 C 294.550781 -123.050781 298.390625 -149.378906 298.390625 -178.265625 C 298.390625 -204.960938 294.367188 -229.28125 286.328125 -251.21875 C 284.492188 -256.707031 282.390625 -261.828125 280.015625 -266.578125 C 277.640625 -271.328125 275.078125 -275.804688 272.328125 -280.015625 C 269.585938 -284.222656 266.570312 -288.15625 263.28125 -291.8125 C 259.988281 -295.46875 256.515625 -298.757812 252.859375 -301.6875 C 249.203125 -304.976562 245.453125 -307.71875 241.609375 -309.90625 C 237.773438 -312.101562 233.664062 -313.929688 229.28125 -315.390625 C 224.894531 -316.859375 220.320312 -317.957031 215.5625 -318.6875 C 210.8125 -319.414062 205.691406 -319.78125 200.203125 -319.78125 C 168.753906 -319.78125 145.171875 -306.617188 129.453125 -280.296875 C 121.035156 -266.035156 114.632812 -249.757812 110.25 -231.46875 C 105.863281 -213.1875 103.671875 -192.710938 103.671875 -170.046875 C 103.671875 -156.515625 104.675781 -143.625 106.6875 -131.375 C 108.695312 -119.125 111.53125 -107.328125 115.1875 -95.984375 C 122.5 -74.773438 133.46875 -57.773438 148.09375 -44.984375 C 161.988281 -32.910156 179.359375 -26.875 200.203125 -26.875 C 221.410156 -26.875 239.148438 -33.09375 253.421875 -45.53125 Z M 253.421875 -45.53125 "/></g></g></g><g fill="#000000" fill-opacity="1"><g transform="translate(1212.67817, 1293.302538)"><g/></g></g><g fill="#000000" fill-opacity="1"><g transform="translate(1334.997073, 1293.302538)"><g><path d="M 26.328125 6.578125 C 16.816406 -2.191406 12.0625 -13.707031 12.0625 -27.96875 C 12.0625 -41.132812 16.722656 -52.378906 26.046875 -61.703125 C 35.378906 -71.023438 46.992188 -75.6875 60.890625 -75.6875 C 74.421875 -75.6875 85.9375 -71.117188 95.4375 -61.984375 C 104.945312 -52.835938 109.703125 -41.5 109.703125 -27.96875 C 109.703125 -24.675781 109.425781 -21.382812 108.875 -18.09375 C 108.332031 -14.8125 107.421875 -11.707031 106.140625 -8.78125 C 104.859375 -5.851562 103.300781 -3.015625 101.46875 -0.265625 C 99.644531 2.472656 97.632812 4.9375 95.4375 7.125 C 90.6875 11.519531 85.289062 14.8125 79.25 17 C 73.21875 19.195312 66.914062 20.296875 60.34375 20.296875 C 53.757812 20.296875 47.539062 19.195312 41.6875 17 C 35.832031 14.8125 30.710938 11.335938 26.328125 6.578125 Z M 26.328125 6.578125 "/></g></g></g></g></g></g></g></g></mask><clipPath id="60bdce7090"><path d="M 0 0 L 1500 0 L 1500 1500 L 0 1500 Z M 0 0 " clip-rule="nonzero"/></clipPath><clipPath id="302e6c7a5b"><rect x="0" width="1500" y="0" height="1500"/></clipPath><clipPath id="8d6d946ccd"><rect x="0" width="1500" y="0" height="1500"/></clipPath><clipPath id="7a51c15ccb"><rect x="0" width="1500" y="0" height="1500"/></clipPath><clipPath id="e6839cd19c"><path d="M 0 0 L 1401.191406 0 L 1401.191406 1500 L 0 1500 Z M 0 0 " clip-rule="nonzero"/></clipPath><clipPath id="dc35d62ae3"><path d="M 0 0 L 1401.191406 0 L 1401.191406 1500 L 0 1500 Z M 0 0 " clip-rule="nonzero"/></clipPath><clipPath id="c76ef41dac"><path d="M 0 0 L 1302.457031 0 L 1302.457031 1500 L 0 1500 Z M 0 0 " clip-rule="nonzero"/></clipPath><linearGradient x1="149.796997" gradientTransform="matrix(1.646169, 0, 0, 1.645945, 31.501906, 802.853239)" y1="-487.776373" x2="149.796997" gradientUnits="userSpaceOnUse" y2="423.553931" id="f7f56b2b36"><stop stop-opacity="1" stop-color="rgb(82.348633%, 85.099792%, 1.568604%)" offset="0"/><stop stop-opacity="1" stop-color="rgb(82.348633%, 85.099792%, 1.568604%)" offset="0.5"/><stop stop-opacity="1" stop-color="rgb(82.348633%, 85.099792%, 1.568604%)" offset="0.53125"/><stop stop-opacity="1" stop-color="rgb(82.348633%, 85.099792%, 1.568604%)" offset="0.539062"/><stop stop-opacity="1" stop-color="rgb(81.712341%, 84.860229%, 1.556396%)" offset="0.542969"/><stop stop-opacity="1" stop-color="rgb(81.077576%, 84.620667%, 1.545715%)" offset="0.546875"/><stop stop-opacity="1" stop-color="rgb(80.26886%, 84.317017%, 1.528931%)" offset="0.550781"/><stop stop-opacity="1" stop-color="rgb(79.46167%, 84.013367%, 1.513672%)" offset="0.554688"/><stop stop-opacity="1" stop-color="rgb(78.65448%, 83.709717%, 1.498413%)" offset="0.558594"/><stop stop-opacity="1" stop-color="rgb(77.84729%, 83.406067%, 1.483154%)" offset="0.5625"/><stop stop-opacity="1" stop-color="rgb(77.038574%, 83.100891%, 1.467896%)" offset="0.566406"/><stop stop-opacity="1" stop-color="rgb(76.231384%, 82.797241%, 1.452637%)" offset="0.570312"/><stop stop-opacity="1" stop-color="rgb(75.424194%, 82.493591%, 1.437378%)" offset="0.574219"/><stop stop-opacity="1" stop-color="rgb(74.617004%, 82.189941%, 1.422119%)" offset="0.578125"/><stop stop-opacity="1" stop-color="rgb(73.808289%, 81.886292%, 1.40686%)" offset="0.582031"/><stop stop-opacity="1" stop-color="rgb(73.001099%, 81.582642%, 1.391602%)" offset="0.585938"/><stop stop-opacity="1" stop-color="rgb(72.193909%, 81.278992%, 1.374817%)" offset="0.589844"/><stop stop-opacity="1" stop-color="rgb(71.386719%, 80.975342%, 1.359558%)" offset="0.59375"/><stop stop-opacity="1" stop-color="rgb(70.578003%, 80.670166%, 1.344299%)" offset="0.597656"/><stop stop-opacity="1" stop-color="rgb(69.770813%, 80.366516%, 1.329041%)" offset="0.601562"/><stop stop-opacity="1" stop-color="rgb(68.962097%, 80.062866%, 1.313782%)" offset="0.605469"/><stop stop-opacity="1" stop-color="rgb(68.154907%, 79.759216%, 1.298523%)" offset="0.609375"/><stop stop-opacity="1" stop-color="rgb(67.347717%, 79.455566%, 1.283264%)" offset="0.613281"/><stop stop-opacity="1" stop-color="rgb(66.540527%, 79.151917%, 1.268005%)" offset="0.617188"/><stop stop-opacity="1" stop-color="rgb(65.731812%, 78.848267%, 1.252747%)" offset="0.621094"/><stop stop-opacity="1" stop-color="rgb(64.924622%, 78.544617%, 1.237488%)" offset="0.625"/><stop stop-opacity="1" stop-color="rgb(64.117432%, 78.240967%, 1.222229%)" offset="0.628906"/><stop stop-opacity="1" stop-color="rgb(63.310242%, 77.937317%, 1.20697%)" offset="0.632813"/><stop stop-opacity="1" stop-color="rgb(62.501526%, 77.632141%, 1.190186%)" offset="0.636719"/><stop stop-opacity="1" stop-color="rgb(61.694336%, 77.328491%, 1.174927%)" offset="0.640625"/><stop stop-opacity="1" stop-color="rgb(60.887146%, 77.024841%, 1.159668%)" offset="0.644531"/><stop stop-opacity="1" stop-color="rgb(60.079956%, 76.721191%, 1.144409%)" offset="0.648438"/><stop stop-opacity="1" stop-color="rgb(59.27124%, 76.417542%, 1.12915%)" offset="0.652344"/><stop stop-opacity="1" stop-color="rgb(58.46405%, 76.113892%, 1.113892%)" offset="0.65625"/><stop stop-opacity="1" stop-color="rgb(57.65686%, 75.810242%, 1.098633%)" offset="0.660156"/><stop stop-opacity="1" stop-color="rgb(56.84967%, 75.506592%, 1.083374%)" offset="0.664063"/><stop stop-opacity="1" stop-color="rgb(56.040955%, 75.202942%, 1.068115%)" offset="0.667969"/><stop stop-opacity="1" stop-color="rgb(55.233765%, 74.899292%, 1.052856%)" offset="0.671875"/><stop stop-opacity="1" stop-color="rgb(54.426575%, 74.594116%, 1.036072%)" offset="0.675781"/><stop stop-opacity="1" stop-color="rgb(53.619385%, 74.290466%, 1.020813%)" offset="0.679688"/><stop stop-opacity="1" stop-color="rgb(52.810669%, 73.986816%, 1.005554%)" offset="0.683594"/><stop stop-opacity="1" stop-color="rgb(52.003479%, 73.683167%, 0.990295%)" offset="0.6875"/><stop stop-opacity="1" stop-color="rgb(51.196289%, 73.379517%, 0.975037%)" offset="0.691406"/><stop stop-opacity="1" stop-color="rgb(50.389099%, 73.075867%, 0.959778%)" offset="0.695313"/><stop stop-opacity="1" stop-color="rgb(49.580383%, 72.772217%, 0.944519%)" offset="0.699219"/><stop stop-opacity="1" stop-color="rgb(48.773193%, 72.468567%, 0.92926%)" offset="0.703125"/><stop stop-opacity="1" stop-color="rgb(47.966003%, 72.163391%, 0.914001%)" offset="0.707031"/><stop stop-opacity="1" stop-color="rgb(47.158813%, 71.859741%, 0.898743%)" offset="0.710938"/><stop stop-opacity="1" stop-color="rgb(46.350098%, 71.556091%, 0.883484%)" offset="0.714844"/><stop stop-opacity="1" stop-color="rgb(45.542908%, 71.252441%, 0.868225%)" offset="0.71875"/><stop stop-opacity="1" stop-color="rgb(44.735718%, 70.948792%, 0.85144%)" offset="0.722656"/><stop stop-opacity="1" stop-color="rgb(43.928528%, 70.645142%, 0.836182%)" offset="0.726563"/><stop stop-opacity="1" stop-color="rgb(43.119812%, 70.341492%, 0.820923%)" offset="0.730469"/><stop stop-opacity="1" stop-color="rgb(42.312622%, 70.037842%, 0.805664%)" offset="0.734375"/><stop stop-opacity="1" stop-color="rgb(41.503906%, 69.734192%, 0.790405%)" offset="0.738281"/><stop stop-opacity="1" stop-color="rgb(40.696716%, 69.430542%, 0.775146%)" offset="0.742188"/><stop stop-opacity="1" stop-color="rgb(39.889526%, 69.125366%, 0.759888%)" offset="0.746094"/><stop stop-opacity="1" stop-color="rgb(39.082336%, 68.821716%, 0.744629%)" offset="0.75"/><stop stop-opacity="1" stop-color="rgb(38.273621%, 68.518066%, 0.72937%)" offset="0.753906"/><stop stop-opacity="1" stop-color="rgb(37.466431%, 68.214417%, 0.714111%)" offset="0.757813"/><stop stop-opacity="1" stop-color="rgb(36.659241%, 67.910767%, 0.697327%)" offset="0.761719"/><stop stop-opacity="1" stop-color="rgb(35.852051%, 67.607117%, 0.682068%)" offset="0.765625"/><stop stop-opacity="1" stop-color="rgb(35.043335%, 67.303467%, 0.666809%)" offset="0.769531"/><stop stop-opacity="1" stop-color="rgb(34.236145%, 66.999817%, 0.65155%)" offset="0.773438"/><stop stop-opacity="1" stop-color="rgb(33.428955%, 66.694641%, 0.636292%)" offset="0.777344"/><stop stop-opacity="1" stop-color="rgb(32.621765%, 66.390991%, 0.621033%)" offset="0.78125"/><stop stop-opacity="1" stop-color="rgb(31.813049%, 66.087341%, 0.605774%)" offset="0.785156"/><stop stop-opacity="1" stop-color="rgb(31.005859%, 65.783691%, 0.590515%)" offset="0.789062"/><stop stop-opacity="1" stop-color="rgb(30.198669%, 65.480042%, 0.575256%)" offset="0.792969"/><stop stop-opacity="1" stop-color="rgb(29.391479%, 65.176392%, 0.559998%)" offset="0.796875"/><stop stop-opacity="1" stop-color="rgb(28.582764%, 64.872742%, 0.544739%)" offset="0.800781"/><stop stop-opacity="1" stop-color="rgb(27.775574%, 64.569092%, 0.52948%)" offset="0.804688"/><stop stop-opacity="1" stop-color="rgb(26.968384%, 64.265442%, 0.512695%)" offset="0.808594"/><stop stop-opacity="1" stop-color="rgb(26.161194%, 63.961792%, 0.497437%)" offset="0.8125"/><stop stop-opacity="1" stop-color="rgb(25.352478%, 63.656616%, 0.482178%)" offset="0.816406"/><stop stop-opacity="1" stop-color="rgb(24.545288%, 63.352966%, 0.466919%)" offset="0.820313"/><stop stop-opacity="1" stop-color="rgb(23.738098%, 63.049316%, 0.45166%)" offset="0.824219"/><stop stop-opacity="1" stop-color="rgb(22.930908%, 62.745667%, 0.436401%)" offset="0.828125"/><stop stop-opacity="1" stop-color="rgb(22.122192%, 62.442017%, 0.421143%)" offset="0.832031"/><stop stop-opacity="1" stop-color="rgb(21.315002%, 62.138367%, 0.405884%)" offset="0.835938"/><stop stop-opacity="1" stop-color="rgb(20.507812%, 61.834717%, 0.390625%)" offset="0.839844"/><stop stop-opacity="1" stop-color="rgb(19.700623%, 61.531067%, 0.375366%)" offset="0.84375"/><stop stop-opacity="1" stop-color="rgb(18.891907%, 61.227417%, 0.358582%)" offset="0.847656"/><stop stop-opacity="1" stop-color="rgb(18.084717%, 60.923767%, 0.343323%)" offset="0.851562"/><stop stop-opacity="1" stop-color="rgb(17.277527%, 60.618591%, 0.328064%)" offset="0.855469"/><stop stop-opacity="1" stop-color="rgb(16.470337%, 60.314941%, 0.312805%)" offset="0.859375"/><stop stop-opacity="1" stop-color="rgb(15.661621%, 60.011292%, 0.297546%)" offset="0.863281"/><stop stop-opacity="1" stop-color="rgb(14.854431%, 59.707642%, 0.282288%)" offset="0.867188"/><stop stop-opacity="1" stop-color="rgb(14.047241%, 59.403992%, 0.267029%)" offset="0.871094"/><stop stop-opacity="1" stop-color="rgb(13.240051%, 59.100342%, 0.25177%)" offset="0.875"/><stop stop-opacity="1" stop-color="rgb(12.431335%, 58.796692%, 0.236511%)" offset="0.878906"/><stop stop-opacity="1" stop-color="rgb(11.624146%, 58.493042%, 0.221252%)" offset="0.882813"/><stop stop-opacity="1" stop-color="rgb(10.81543%, 58.187866%, 0.205994%)" offset="0.886719"/><stop stop-opacity="1" stop-color="rgb(10.00824%, 57.884216%, 0.190735%)" offset="0.890625"/><stop stop-opacity="1" stop-color="rgb(9.20105%, 57.580566%, 0.17395%)" offset="0.894531"/><stop stop-opacity="1" stop-color="rgb(8.39386%, 57.276917%, 0.158691%)" offset="0.898438"/><stop stop-opacity="1" stop-color="rgb(7.585144%, 56.973267%, 0.143433%)" offset="0.902344"/><stop stop-opacity="1" stop-color="rgb(6.777954%, 56.669617%, 0.128174%)" offset="0.90625"/><stop stop-opacity="1" stop-color="rgb(5.970764%, 56.365967%, 0.112915%)" offset="0.910156"/><stop stop-opacity="1" stop-color="rgb(5.163574%, 56.062317%, 0.0976562%)" offset="0.914063"/><stop stop-opacity="1" stop-color="rgb(4.354858%, 55.758667%, 0.0823975%)" offset="0.917969"/><stop stop-opacity="1" stop-color="rgb(3.547668%, 55.455017%, 0.0671387%)" offset="0.921875"/><stop stop-opacity="1" stop-color="rgb(2.740479%, 55.149841%, 0.0518799%)" offset="0.925781"/><stop stop-opacity="1" stop-color="rgb(1.933289%, 54.846191%, 0.0366211%)" offset="0.929688"/><stop stop-opacity="1" stop-color="rgb(1.124573%, 54.542542%, 0.0198364%)" offset="0.933594"/><stop stop-opacity="1" stop-color="rgb(0.317383%, 54.238892%, 0.00457764%)" offset="0.9375"/><stop stop-opacity="1" stop-color="rgb(0.158691%, 54.179382%, 0.00152588%)" offset="1"/></linearGradient><clipPath id="9949fd6567"><rect x="0" width="1402" y="0" height="1500"/></clipPath><clipPath id="8ba80a7a77"><path d="M 0 0 L 1401.191406 0 L 1401.191406 1500 L 0 1500 Z M 0 0 " clip-rule="nonzero"/></clipPath><clipPath id="9a0222a8e7"><rect x="0" width="1402" y="0" height="1500"/></clipPath><clipPath id="302075d996"><rect x="0" width="1402" y="0" height="1500"/></clipPath><mask id="5c7453f5c1"><g filter="url(#f3c9923a54)"><g transform="matrix(1, 0, 0, 1, 0, 0.000000000000112861)"><g clip-path="url(#302075d996)"><g clip-path="url(#8ba80a7a77)"><g transform="matrix(1, 0, 0, 1, 0, 0.000000000000112861)"><g clip-path="url(#9a0222a8e7)"><g fill="#000000" fill-opacity="1"><g transform="translate(130.582882, 1277.669699)"><g><path d="M 128.125 4.5 C 105.414062 4.5 85.5625 0.644531 68.5625 -7.0625 C 51.5625 -14.78125 38.453125 -25.816406 29.234375 -40.171875 C 20.023438 -54.523438 15.421875 -71.273438 15.421875 -90.421875 C 15.421875 -110.984375 20.5625 -128.085938 30.84375 -141.734375 C 41.132812 -155.378906 56.632812 -166.554688 77.34375 -175.265625 L 77.78125 -179.765625 C 68.351562 -191.335938 61.566406 -202.015625 57.421875 -211.796875 C 53.273438 -221.585938 51.203125 -232.335938 51.203125 -244.046875 C 51.203125 -258.472656 54.628906 -271.253906 61.484375 -282.390625 C 68.347656 -293.535156 78.3125 -302.210938 91.375 -308.421875 C 104.445312 -314.640625 119.984375 -317.75 137.984375 -317.75 C 155.128906 -317.75 169.804688 -314.890625 182.015625 -309.171875 C 194.234375 -303.460938 203.554688 -295.535156 209.984375 -285.390625 C 216.410156 -275.253906 219.625 -263.546875 219.625 -250.265625 C 219.625 -232.410156 214.300781 -216.910156 203.65625 -203.765625 C 193.007812 -190.617188 176.476562 -179.765625 154.0625 -171.203125 L 153.625 -166.703125 L 211.484375 -90.203125 C 214.910156 -97.628906 217.300781 -106.160156 218.65625 -115.796875 C 220.007812 -125.441406 220.6875 -136.335938 220.6875 -148.484375 L 220.484375 -159.40625 L 270.609375 -159.40625 C 270.609375 -115.414062 261.96875 -79.847656 244.6875 -52.703125 C 248.257812 -49.847656 251.363281 -47.847656 254 -46.703125 C 256.644531 -45.566406 259.539062 -45 262.6875 -45 C 265.6875 -45 268.113281 -45.140625 269.96875 -45.421875 C 271.832031 -45.710938 273.90625 -46.210938 276.1875 -46.921875 L 279.40625 -46.0625 L 286.90625 -3 C 284.1875 -1.144531 280.328125 0.28125 275.328125 1.28125 C 270.328125 2.28125 264.753906 2.78125 258.609375 2.78125 C 248.179688 2.78125 239.003906 1.066406 231.078125 -2.359375 C 223.148438 -5.785156 215.617188 -11.070312 208.484375 -18.21875 L 203.984375 -18.21875 C 186.265625 -3.070312 160.976562 4.5 128.125 4.5 Z M 127.921875 -200.765625 C 141.203125 -207.335938 150.84375 -214.015625 156.84375 -220.796875 C 162.84375 -227.578125 165.84375 -236.039062 165.84375 -246.1875 C 165.84375 -255.039062 163.269531 -261.859375 158.125 -266.640625 C 152.976562 -271.429688 146.050781 -273.828125 137.34375 -273.828125 C 128.488281 -273.828125 121.378906 -271.253906 116.015625 -266.109375 C 110.660156 -260.972656 107.984375 -253.90625 107.984375 -244.90625 C 107.984375 -238.050781 109.410156 -231.585938 112.265625 -225.515625 C 115.128906 -219.441406 120.347656 -211.191406 127.921875 -200.765625 Z M 135.625 -46.5 C 149.34375 -46.5 161.054688 -49.140625 170.765625 -54.421875 L 101.125 -143.125 C 92.84375 -137.695312 86.738281 -131.304688 82.8125 -123.953125 C 78.882812 -116.597656 76.921875 -107.921875 76.921875 -97.921875 C 76.921875 -87.628906 79.3125 -78.59375 84.09375 -70.8125 C 88.882812 -63.03125 95.707031 -57.03125 104.5625 -52.8125 C 113.414062 -48.601562 123.769531 -46.5 135.625 -46.5 Z M 135.625 -46.5 "/></g></g></g></g></g></g></g></g></g></mask><clipPath id="27653688dc"><path d="M 0 0 L 1302.457031 0 L 1302.457031 1500 L 0 1500 Z M 0 0 " clip-rule="nonzero"/></clipPath><clipPath id="a4b26c4395"><rect x="0" width="1402" y="0" height="1500"/></clipPath><clipPath id="e9d1760a6b"><rect x="0" width="1402" y="0" height="1500"/></clipPath><clipPath id="13e0ea1680"><rect x="0" width="1402" y="0" height="1500"/></clipPath></defs><g transform="matrix(1, 0, 0, 1, 0, 0.000000000000112861)"><g clip-path="url(#0ef366fe4e)"><g clip-path="url(#af4127da34)"><g fill="#ffffff" fill-opacity="1"><g transform="translate(-30.224629, 1197.440214)"><g><path d="M 37 15.65625 C 32.257812 9.007812 28.9375 2.128906 27.03125 -4.984375 C 25.132812 -12.097656 24.1875 -19.453125 24.1875 -27.046875 L 24.1875 -29.890625 C 24.1875 -29.890625 24.1875 -30.835938 24.1875 -32.734375 C 26.09375 -57.398438 34.632812 -74.003906 49.8125 -82.546875 C 60.25 -89.179688 75.429688 -92.5 95.359375 -92.5 C 115.273438 -92.5 128.554688 -94.875 135.203125 -99.625 C 141.835938 -104.363281 145.632812 -110.054688 146.59375 -116.703125 C 149.4375 -129.035156 151.332031 -145.640625 152.28125 -166.515625 L 152.28125 -731.515625 C 151.332031 -752.378906 149.4375 -768.984375 146.59375 -781.328125 C 145.632812 -784.171875 144.441406 -787.015625 143.015625 -789.859375 C 141.597656 -792.703125 138.992188 -795.070312 135.203125 -796.96875 C 128.554688 -802.664062 115.273438 -805.515625 95.359375 -805.515625 L 86.8125 -805.515625 C 83.019531 -805.515625 79.695312 -805.75 76.84375 -806.21875 C 74 -806.695312 70.441406 -807.171875 66.171875 -807.640625 C 61.898438 -808.117188 57.867188 -809.304688 54.078125 -811.203125 C 50.285156 -813.097656 46.96875 -815.945312 44.125 -819.75 C 41.269531 -821.644531 39.128906 -823.300781 37.703125 -824.71875 C 36.285156 -826.144531 34.863281 -828.046875 33.4375 -830.421875 C 32.019531 -832.796875 30.835938 -834.691406 29.890625 -836.109375 C 28.941406 -837.535156 28.226562 -839.429688 27.75 -841.796875 C 27.28125 -844.171875 26.804688 -846.070312 26.328125 -847.5 C 25.847656 -848.925781 25.609375 -850.820312 25.609375 -853.1875 C 25.609375 -855.5625 25.367188 -857.222656 24.890625 -858.171875 C 24.421875 -859.117188 24.1875 -861.015625 24.1875 -863.859375 C 24.1875 -866.710938 24.1875 -868.140625 24.1875 -868.140625 L 24.1875 -870.984375 C 24.1875 -874.773438 24.421875 -878.566406 24.890625 -882.359375 C 25.367188 -886.160156 26.082031 -889.71875 27.03125 -893.03125 C 27.988281 -896.351562 29.414062 -899.675781 31.3125 -903 C 33.207031 -906.320312 35.101562 -909.878906 37 -913.671875 C 40.789062 -918.421875 45.296875 -922.691406 50.515625 -926.484375 C 55.734375 -930.273438 61.425781 -933.117188 67.59375 -935.015625 C 73.757812 -936.921875 79.691406 -937.875 85.390625 -937.875 L 86.8125 -937.875 C 117.175781 -935.976562 146.351562 -934.789062 174.34375 -934.3125 C 202.332031 -933.832031 228.660156 -933.59375 253.328125 -933.59375 L 453.984375 -933.59375 C 467.273438 -933.59375 480.085938 -933.351562 492.421875 -932.875 C 504.753906 -932.40625 516.613281 -931.695312 528 -930.75 C 539.382812 -929.800781 550.054688 -928.613281 560.015625 -927.1875 C 569.984375 -925.769531 579.707031 -923.640625 589.1875 -920.796875 C 625.25 -912.253906 657.984375 -898.96875 687.390625 -880.9375 C 701.617188 -871.457031 714.660156 -859.835938 726.515625 -846.078125 C 738.378906 -832.316406 748.582031 -817.375 757.125 -801.25 C 774.207031 -768.039062 782.75 -731.984375 782.75 -693.078125 C 782.75 -658.921875 776.816406 -627.847656 764.953125 -599.859375 C 753.097656 -571.878906 735.785156 -547.453125 713.015625 -526.578125 C 700.679688 -515.191406 686.921875 -504.753906 671.734375 -495.265625 C 684.066406 -490.515625 694.976562 -485.769531 704.46875 -481.03125 C 750.957031 -459.207031 787.007812 -429.320312 812.625 -391.375 C 825.914062 -371.445312 835.878906 -351.046875 842.515625 -330.171875 C 849.160156 -309.296875 852.484375 -287.472656 852.484375 -264.703125 C 852.484375 -250.472656 851.53125 -236.476562 849.625 -222.71875 C 847.726562 -208.96875 844.882812 -195.6875 841.09375 -182.875 C 837.300781 -170.070312 832.796875 -157.976562 827.578125 -146.59375 C 822.359375 -135.207031 815.953125 -124.054688 808.359375 -113.140625 C 800.765625 -102.234375 792.226562 -92.035156 782.75 -82.546875 C 739.101562 -38.898438 684.546875 -7.585938 619.078125 11.390625 C 556.460938 28.460938 491.945312 37 425.53125 37 L 254.75 35.578125 C 204.457031 35.578125 148.476562 37 86.8125 39.84375 L 85.390625 39.84375 C 64.515625 39.84375 48.382812 31.78125 37 15.65625 Z M 388.53125 -542.234375 C 423.632812 -542.234375 454.46875 -544.601562 481.03125 -549.34375 C 500.957031 -554.082031 518.984375 -565.941406 535.109375 -584.921875 C 551.242188 -602.003906 559.3125 -632.363281 559.3125 -676 C 559.3125 -724.394531 549.347656 -758.789062 529.421875 -779.1875 C 509.492188 -799.582031 475.8125 -809.78125 428.375 -809.78125 L 364.328125 -809.78125 L 364.328125 -542.234375 Z M 577.8125 -135.203125 C 610.070312 -161.765625 626.675781 -207.304688 627.625 -271.828125 C 622.875 -311.671875 603.421875 -344.878906 569.265625 -371.453125 C 532.265625 -399.910156 471.546875 -414.140625 387.109375 -414.140625 L 364.328125 -414.140625 L 364.328125 -166.515625 C 364.328125 -138.992188 366.703125 -119.539062 371.453125 -108.15625 C 374.296875 -101.519531 377.140625 -97.726562 379.984375 -96.78125 C 382.828125 -95.832031 386.382812 -94.878906 390.65625 -93.921875 C 394.925781 -92.972656 400.617188 -92.257812 407.734375 -91.78125 C 414.847656 -91.3125 422.675781 -91.078125 431.21875 -91.078125 C 492.894531 -92.023438 541.757812 -106.734375 577.8125 -135.203125 Z M 577.8125 -135.203125 "/></g></g></g></g></g></g><g transform="matrix(1, 0, 0, 1, 0, 0.000000000000112861)"><g clip-path="url(#7a51c15ccb)"><g transform="matrix(1, 0, 0, 1, 0, 0.000000000000112861)"><g clip-path="url(#8d6d946ccd)"><g mask="url(#68c13d8e66)"><g transform="matrix(1, 0, 0, 1, 0, 0.000000000000112861)"><g clip-path="url(#302e6c7a5b)"><g clip-path="url(#60bdce7090)"><rect x="-805.2" fill="url(#22b84ac753)" width="3110.4" height="3110.399862" y="-805.199964"/></g></g></g></g></g></g></g></g><g transform="matrix(1, 0, 0, 1, 0, 0.000000000000112861)"><g clip-path="url(#13e0ea1680)"><g clip-path="url(#e6839cd19c)"><g transform="matrix(1, 0, 0, 1, 0, 0.000000000000112861)"><g clip-path="url(#e9d1760a6b)"><g clip-path="url(#dc35d62ae3)"><g mask="url(#5c7453f5c1)"><g transform="matrix(1, 0, 0, 1, 0, 0.000000000000112861)"><g clip-path="url(#a4b26c4395)"><g clip-path="url(#27653688dc)"><path fill="url(#f7f56b2b36)" d="M 0 0 L 0 1500 L 1302.457031 1500 L 1302.457031 0 Z M 0 0 " fill-rule="nonzero"/></g></g></g></g></g></g></g></g></g></g></svg>