<svg width="16" height="15" viewBox="0 0 16 15" fill="none" xmlns="http://www.w3.org/2000/svg">
<path d="M5.9175 11.0953C4.26363 11.0953 2.86407 10.5582 1.71881 9.48393C0.573542 8.40967 0.000607404 7.09758 4.81685e-07 5.54765C-0.000606441 3.99772 0.572329 2.68563 1.71881 1.61138C2.86528 0.537127 4.26485 0 5.9175 0C7.57015 0 8.97001 0.537127 10.1171 1.61138C11.2642 2.68563 11.8368 3.99772 11.835 5.54765C11.835 6.17354 11.7288 6.76387 11.5164 7.31863C11.3039 7.8734 11.0156 8.36415 10.6515 8.7909L15.7496 13.5704C15.9165 13.7269 16 13.926 16 14.1679C16 14.4097 15.9165 14.6088 15.7496 14.7653C15.5827 14.9218 15.3703 15 15.1124 15C14.8544 15 14.642 14.9218 14.4751 14.7653L9.37696 9.98577C8.92176 10.3272 8.39829 10.5974 7.80654 10.7966C7.21479 10.9957 6.58511 11.0953 5.9175 11.0953ZM5.9175 9.38834C7.05548 9.38834 8.02291 9.01508 8.8198 8.26856C9.61669 7.52205 10.0148 6.61508 10.0142 5.54765C10.0136 4.48023 9.61548 3.57354 8.8198 2.8276C8.02413 2.08165 7.05669 1.70811 5.9175 1.70697C4.7783 1.70583 3.81117 2.07937 3.0161 2.8276C2.22103 3.57582 1.82259 4.4825 1.82077 5.54765C1.81895 6.6128 2.21739 7.51977 3.0161 8.26856C3.81481 9.01735 4.78194 9.39061 5.9175 9.38834Z" fill="black"/>
</svg>
